Coordinates
version=1
nRows=125
nColumns=11
inDegrees=no

Units are S.I. units (second, meters, Newtons, ...)
If the header above contains a line with 'inDegrees', this indicates whether rotational values are in degrees (yes) or radians (no).

endheader
time	pelvis_tilt	pelvis_tx	pelvis_ty	hip_flexion_r	knee_angle_r	ankle_angle_r	hip_flexion_l	knee_angle_l	ankle_angle_l	lumbar_extension
105.01	-0.0845899	0.00828843	0.900022	0.570662	-0.559534	0.226244	0.0481421	-0.661209	0.226581	0
105.02	-0.077546	0.0102845	0.901752	0.550438	-0.560312	0.235828	0.0628394	-0.712788	0.179876	0
105.03	-0.0932818	0.00864424	0.901603	0.564	-0.564438	0.239363	0.116678	-0.777299	0.128514	0
105.04	-0.0900855	0.00987286	0.902602	0.551194	-0.568112	0.247148	0.143768	-0.836875	0.0784661	0
105.05	-0.0871596	0.0109613	0.903655	0.537157	-0.568584	0.258085	0.171352	-0.893509	0.0261649	0
105.06	-0.0837172	0.0120944	0.904596	0.522197	-0.568484	0.268486	0.198204	-0.947249	-0.0250334	0
105.07	-0.064122	0.0162083	0.906758	0.485258	-0.567981	0.281052	0.2003	-0.990839	-0.0805119	0
105.08	-0.0630591	0.0163246	0.907577	0.472297	-0.565359	0.291323	0.23077	-1.03719	-0.139684	0
105.09	-0.0783706	0.0129372	0.90712	0.48078	-0.56168	0.297174	0.286295	-1.08652	-0.182014	0
105.1	-0.0615946	0.0163376	0.908876	0.450073	-0.564932	0.305331	0.29197	-1.12191	-0.191821	0
105.11	-0.075744	0.013323	0.908344	0.458849	-0.563075	0.310192	0.346318	-1.17084	-0.16794	0
105.12	-0.0716355	0.0133578	0.909368	0.440128	-0.555747	0.319588	0.369016	-1.20554	-0.120069	0
105.13	-0.0673114	0.0138111	0.910502	0.422577	-0.550736	0.327065	0.390412	-1.23587	-0.0598766	0
105.14	-0.0640296	0.0140208	0.911498	0.407941	-0.549739	0.331521	0.413027	-1.26159	-0.0028341	0
105.15	-0.0644489	0.0133687	0.911765	0.398344	-0.547667	0.335863	0.443171	-1.28583	0.0497011	0
105.16	-0.0640386	0.0122521	0.912268	0.387259	-0.542972	0.339404	0.471938	-1.30401	0.094967	0
105.17	-0.0627422	0.0114755	0.913178	0.373637	-0.535757	0.343626	0.497397	-1.31507	0.130099	0
105.18	-0.0606078	0.0113491	0.914232	0.356871	-0.5266	0.348805	0.519307	-1.31933	0.15588	0
105.19	-0.0590392	0.0109051	0.915067	0.341594	-0.517994	0.355075	0.540735	-1.3179	0.171628	0
105.2	-0.0581015	0.0100317	0.915668	0.326773	-0.50879	0.361079	0.563157	-1.31298	0.179393	0
105.21	-0.0567328	0.00871978	0.916291	0.31164	-0.499911	0.363619	0.583446	-1.30289	0.185218	0
105.22	-0.0556875	0.00811102	0.916944	0.296765	-0.490488	0.36621	0.600829	-1.28607	0.192468	0
105.23	-0.0548291	0.0071147	0.91755	0.281247	-0.479867	0.370301	0.615863	-1.26453	0.202774	0
105.24	-0.0553851	0.00606884	0.91778	0.268908	-0.469209	0.373354	0.633187	-1.24015	0.214569	0
105.25	-0.0574381	0.00484686	0.917815	0.258059	-0.458758	0.375846	0.651373	-1.21325	0.235155	0
105.26	-0.0589697	0.00387719	0.917862	0.245497	-0.447215	0.378076	0.666585	-1.18243	0.257396	0
105.27	-0.0430349	0.00559638	0.919337	0.208578	-0.436098	0.383257	0.651349	-1.141	0.272118	0
105.28	-0.0399607	0.00557304	0.919559	0.190471	-0.425138	0.387675	0.654181	-1.09747	0.279684	0
105.29	-0.0426637	0.00428362	0.919209	0.180542	-0.415725	0.391218	0.66414	-1.05164	0.274765	0
105.3	-0.0626019	-0.000171631	0.917387	0.192449	-0.403856	0.390744	0.69771	-1.00647	0.263841	0
105.31	-0.0650668	-0.00123122	0.916756	0.181846	-0.394175	0.394848	0.70474	-0.958509	0.249745	0
105.32	-0.0675464	-0.00222532	0.916109	0.169546	-0.380863	0.398572	0.710477	-0.910338	0.235361	0
105.33	-0.0699892	-0.00322172	0.915382	0.158325	-0.370439	0.401806	0.71265	-0.857588	0.227632	0
105.34	-0.0525045	-0.00127681	0.916064	0.120964	-0.362249	0.410207	0.683372	-0.79904	0.226004	0
105.35	-0.0537995	-0.00191466	0.915137	0.107605	-0.351106	0.414152	0.680459	-0.74424	0.223643	0
105.36	-0.0758424	-0.00541508	0.912312	0.121658	-0.339719	0.414658	0.706024	-0.695129	0.217067	0
105.37	-0.0578498	-0.00249548	0.912518	0.0831963	-0.331539	0.421956	0.676831	-0.649974	0.214475	0
105.38	-0.056115	-0.00195016	0.911554	0.0640238	-0.317538	0.426997	0.670299	-0.613153	0.21783	0
105.39	-0.0542721	-0.00107299	0.910503	0.0474355	-0.308427	0.432355	0.66536	-0.583783	0.221204	0
105.4	-0.0777202	-0.00437301	0.907477	0.0638105	-0.299402	0.432043	0.692194	-0.558401	0.225851	0
105.41	-0.0589636	-0.00129923	0.907595	0.0261069	-0.295658	0.439583	0.662926	-0.539243	0.229879	0
105.42	-0.0563783	-0.000129504	0.906544	0.00576569	-0.282642	0.442792	0.654284	-0.523486	0.233418	0
105.43	-0.0545391	0.000775676	0.905243	-0.0117974	-0.272955	0.445823	0.645366	-0.511632	0.233584	0
105.44	-0.052775	0.00163649	0.903788	-0.0274331	-0.266937	0.448798	0.635955	-0.505142	0.238297	0
105.45	-0.0520283	0.00252689	0.902344	-0.0416989	-0.261672	0.451293	0.627217	-0.503457	0.239582	0
105.46	-0.0508859	0.00366535	0.901032	-0.0569805	-0.256014	0.455322	0.617865	-0.504567	0.231116	0
105.47	-0.0497984	0.00475522	0.899623	-0.0704746	-0.25375	0.457234	0.610123	-0.507902	0.213013	0
105.48	-0.0487995	0.00580656	0.898204	-0.0808195	-0.257495	0.458728	0.605622	-0.517424	0.198603	0
105.49	-0.0471726	0.00697515	0.89705	-0.0904666	-0.263975	0.45936	0.60219	-0.531948	0.197997	0
105.5	-0.0456975	0.00792147	0.896194	-0.0976629	-0.274219	0.457724	0.600845	-0.550991	0.206509	0
105.51	-0.0446121	0.00895537	0.895714	-0.103867	-0.285658	0.45369	0.601897	-0.573789	0.211823	0
105.52	-0.0411099	0.0109838	0.895702	-0.111017	-0.300423	0.447718	0.597398	-0.59118	0.216179	0
105.53	-0.0419314	0.0113198	0.895643	-0.110995	-0.318932	0.437781	0.592472	-0.599926	0.22734	0
105.54	-0.0402102	0.0123938	0.896043	-0.108897	-0.346213	0.423767	0.582485	-0.606006	0.240746	0
105.55	-0.0388869	0.0135076	0.896839	-0.106638	-0.372112	0.406337	0.570327	-0.608191	0.251788	0
105.56	-0.0375589	0.0144835	0.897826	-0.102019	-0.401315	0.384896	0.558346	-0.609892	0.261716	0
105.57	-0.0357496	0.0155074	0.89885	-0.0922052	-0.44053	0.364101	0.544547	-0.608197	0.269762	0
105.58	-0.0333348	0.0164978	0.900076	-0.0798797	-0.484456	0.338423	0.529042	-0.604455	0.275946	0
105.59	-0.0314575	0.0173084	0.901325	-0.0631188	-0.532544	0.305224	0.514016	-0.600415	0.282723	0
105.6	-0.0294943	0.0177704	0.902539	-0.0436639	-0.58378	0.27043	0.50023	-0.598319	0.290971	0
105.61	-0.0284851	0.0177772	0.903729	-0.0193895	-0.639732	0.236101	0.487488	-0.593815	0.296382	0
105.62	-0.0270846	0.0178905	0.905085	0.00617533	-0.696756	0.202657	0.47368	-0.588709	0.300454	0
105.63	-0.0252462	0.0179438	0.906398	0.0329756	-0.754879	0.170144	0.460639	-0.586603	0.302692	0
105.64	-0.0252154	0.0175786	0.907418	0.063462	-0.81416	0.140553	0.451801	-0.587096	0.305688	0
105.65	-0.0406051	0.0148588	0.907357	0.116552	-0.874488	0.112749	0.461164	-0.582288	0.307169	0
105.66	-0.0382324	0.0146464	0.908442	0.142229	-0.92581	0.0935751	0.44464	-0.574691	0.315804	0
105.67	-0.0353061	0.0143287	0.909786	0.166207	-0.972547	0.0875369	0.42632	-0.564136	0.319358	0
105.68	-0.0167626	0.0163339	0.912347	0.165214	-1.01143	0.0970907	0.388297	-0.55758	0.327053	0
105.69	-0.0182065	0.0156623	0.913178	0.197091	-1.05741	0.11638	0.379933	-0.553362	0.331976	0
105.7	-0.032152	0.0118641	0.913213	0.247121	-1.10339	0.135663	0.385562	-0.544994	0.334379	0
105.71	-0.0167428	0.0137964	0.915378	0.250383	-1.12937	0.149185	0.351244	-0.535155	0.338935	0
105.72	-0.0185757	0.012123	0.916321	0.282417	-1.15931	0.159446	0.34037	-0.523658	0.33928	0
105.73	-0.034002	0.00755911	0.916224	0.335562	-1.19006	0.165034	0.347496	-0.510881	0.332951	0
105.74	-0.0340525	0.00602028	0.917366	0.361709	-1.20783	0.169079	0.334802	-0.501692	0.332579	0
105.75	-0.0341342	0.00478112	0.918475	0.385877	-1.21975	0.176524	0.320491	-0.489792	0.335174	0
105.76	-0.0347677	0.00335916	0.919641	0.41006	-1.22624	0.187192	0.305728	-0.475666	0.335513	0
105.77	-0.0185363	0.00538298	0.922373	0.40537	-1.21947	0.197037	0.266483	-0.459515	0.341139	0
105.78	-0.0183163	0.0040925	0.923736	0.424597	-1.21387	0.211327	0.248617	-0.442366	0.34398	0
105.79	-0.0204356	0.0018177	0.924167	0.449256	-1.20882	0.222042	0.238433	-0.432999	0.339839	0
105.8	-0.0375618	-0.00340386	0.92338	0.49572	-1.20384	0.235036	0.245941	-0.417137	0.335834	0
105.81	-0.0228939	-0.00177365	0.925062	0.4916	-1.18363	0.244677	0.213674	-0.407032	0.339786	0
105.82	-0.0226761	-0.00300123	0.925766	0.506259	-1.16028	0.255378	0.197511	-0.392243	0.339308	0
105.83	-0.0258287	-0.00496252	0.926043	0.524811	-1.13334	0.260802	0.186983	-0.379309	0.334585	0
105.84	-0.0440124	-0.0099177	0.925036	0.563677	-1.10532	0.263676	0.195261	-0.362273	0.329951	0
105.85	-0.0476276	-0.0120575	0.924872	0.578375	-1.06937	0.262636	0.186048	-0.349159	0.329212	0
105.86	-0.0289031	-0.0099629	0.926326	0.55872	-1.02732	0.25854	0.148124	-0.340258	0.333326	0
105.87	-0.0313698	-0.0119069	0.926294	0.567682	-0.986102	0.25287	0.135985	-0.327181	0.334861	0
105.88	-0.0358233	-0.014165	0.925644	0.580135	-0.944434	0.244694	0.130922	-0.321157	0.336078	0
105.89	-0.0563879	-0.0190829	0.923692	0.613095	-0.90011	0.243761	0.144546	-0.308673	0.33601	0
105.9	-0.0413577	-0.017805	0.924339	0.594104	-0.850269	0.238004	0.113186	-0.303665	0.342688	0
105.91	-0.042507	-0.019214	0.923878	0.595917	-0.798887	0.231901	0.100689	-0.292711	0.344374	0
105.92	-0.0447793	-0.0208352	0.923056	0.600213	-0.750489	0.226685	0.0913645	-0.28445	0.349864	0
105.93	-0.0466115	-0.0222436	0.922192	0.60362	-0.703931	0.221316	0.081822	-0.277135	0.35436	0
105.94	-0.0491438	-0.0238106	0.92101	0.608176	-0.660322	0.220625	0.0751565	-0.274398	0.358556	0
105.95	-0.0527815	-0.0253779	0.919579	0.612305	-0.615813	0.221395	0.0702964	-0.273083	0.363578	0
105.96	-0.0719043	-0.028783	0.916965	0.635836	-0.570818	0.221919	0.0834397	-0.266121	0.364194	0
105.97	-0.0559479	-0.027177	0.916983	0.612915	-0.530624	0.217086	0.0516655	-0.265161	0.372801	0
105.98	-0.0737471	-0.0303245	0.914392	0.634366	-0.491053	0.212115	0.064981	-0.261382	0.375654	0
105.99	-0.0565419	-0.0287684	0.91421	0.609173	-0.457353	0.208756	0.031851	-0.259861	0.384915	0
106	-0.0754987	-0.0319377	0.911422	0.631886	-0.427411	0.202321	0.0454499	-0.253079	0.384966	0
106.01	-0.0579701	-0.0300544	0.911246	0.608373	-0.407637	0.200866	0.0128711	-0.253032	0.393684	0
106.02	-0.0561243	-0.0299698	0.91	0.607027	-0.396277	0.199181	-0.00091352	-0.24865	0.399221	0
106.03	-0.0547427	-0.0299887	0.908663	0.607344	-0.393505	0.197806	-0.0130007	-0.24698	0.405548	0
106.04	-0.0530593	-0.0299689	0.907385	0.606798	-0.3961	0.199213	-0.0249819	-0.246338	0.410094	0
106.05	-0.0510348	-0.0297305	0.906144	0.606226	-0.40511	0.202245	-0.0382622	-0.243595	0.412984	0
106.06	-0.049129	-0.0294211	0.904895	0.606091	-0.419813	0.203842	-0.0511529	-0.241831	0.415966	0
106.07	-0.047715	-0.0290783	0.903531	0.606716	-0.438642	0.203056	-0.0623685	-0.242561	0.419483	0
106.08	-0.0453672	-0.0285326	0.902386	0.604214	-0.456463	0.202165	-0.0733741	-0.246258	0.421726	0
106.09	-0.0428286	-0.0277798	0.901324	0.598953	-0.471165	0.205086	-0.0844844	-0.25081	0.423713	0
106.1	-0.0414601	-0.0271475	0.900349	0.594189	-0.482795	0.205917	-0.0932146	-0.257006	0.422744	0
106.11	-0.0584446	-0.0291119	0.898363	0.613432	-0.4916	0.196354	-0.0775983	-0.262281	0.415272	0
106.12	-0.0384986	-0.0257688	0.89879	0.584028	-0.500774	0.184095	-0.107793	-0.27492	0.4164	0
106.13	-0.0349174	-0.0245291	0.898194	0.576178	-0.511031	0.178013	-0.116809	-0.285411	0.413535	0
106.14	-0.0498041	-0.0256412	0.896667	0.593446	-0.524412	0.184676	-0.0997258	-0.299068	0.406744	0
106.15	-0.0295486	-0.0220805	0.897716	0.566298	-0.543176	0.198663	-0.12551	-0.321009	0.402741	0
106.16	-0.025719	-0.0209249	0.897986	0.56044	-0.559425	0.207498	-0.127825	-0.343741	0.390372	0
106.17	-0.0255301	-0.0206947	0.898245	0.558201	-0.572161	0.2081	-0.118994	-0.378382	0.374324	0
106.18	-0.0250236	-0.0202585	0.898853	0.550483	-0.576156	0.215828	-0.107775	-0.417119	0.357324	0
106.19	-0.0227883	-0.0194283	0.899758	0.53814	-0.577681	0.22674	-0.0985479	-0.454923	0.3372	0
106.2	-0.0207772	-0.0186022	0.90091	0.523808	-0.575776	0.236062	-0.0858775	-0.496229	0.310646	0
106.21	-0.0196299	-0.0182986	0.901966	0.510532	-0.572274	0.243496	-0.0662933	-0.546042	0.278136	0
106.22	-0.0195299	-0.0182472	0.903013	0.498244	-0.567964	0.250211	-0.0404366	-0.603113	0.23971	0
106.23	-0.0193621	-0.0184268	0.904311	0.486052	-0.564858	0.25655	-0.0131982	-0.661457	0.200522	0
106.24	-0.0188357	-0.0184347	0.905577	0.474594	-0.562569	0.262729	0.0154098	-0.720063	0.168874	0
106.25	-0.018815	-0.0185999	0.90662	0.462778	-0.559285	0.2711	0.046942	-0.780058	0.128739	0
